<svg width="50" height="56" viewBox="0 0 50 56" fill="none" xmlns="http://www.w3.org/2000/svg">
<path d="M24.8368 28C31.7404 28 37.3368 22.4036 37.3368 15.5C37.3368 8.59644 31.7404 3 24.8368 3C17.9332 3 12.3368 8.59644 12.3368 15.5C12.3368 22.4036 17.9332 28 24.8368 28Z" stroke="white" stroke-width="5"/>
<path d="M37.3368 33H38.2161C41.9983 33 45.1888 35.8165 45.6581 39.5697L46.6343 47.3797C47.0073 50.364 44.6803 53 41.6728 53H8.00072C4.99325 53 2.66632 50.364 3.03935 47.3797L4.0156 39.5697C4.48475 35.8165 7.67527 33 11.4577 33H12.3368" stroke="white" stroke-width="5" stroke-linecap="round" stroke-linejoin="round"/>
</svg>
