<svg width="80" height="80" viewBox="0 0 80 80" fill="none" xmlns="http://www.w3.org/2000/svg">
<path fill-rule="evenodd" clip-rule="evenodd" d="M23.5089 0.24C27.7756 0.0444363 29.1356 0 40 0C50.8665 0 52.2244 0.0466545 56.4887 0.24C60.7487 0.433345 63.6578 1.11113 66.2022 2.1C68.8709 3.10476 71.2884 4.67905 73.2865 6.71335C75.3211 8.71127 76.8956 11.1289 77.9 13.7978C78.8887 16.3422 79.5644 19.2511 79.76 23.5089C79.9556 27.7756 80 29.1356 80 40C80 50.8644 79.9535 52.2244 79.76 56.4913C79.5666 60.7487 78.8887 63.6578 77.9 66.2022C76.8778 68.8313 75.5087 71.0644 73.2865 73.2865C71.2887 75.3211 68.8709 76.8956 66.2022 77.9C63.6578 78.8887 60.7487 79.5644 56.4913 79.76C52.2244 79.9556 50.8644 80 40 80C29.1356 80 27.7756 79.9535 23.5089 79.76C19.2511 79.5666 16.3422 78.8887 13.7978 77.9C11.1689 76.8778 8.93556 75.5087 6.71335 73.2865C4.67869 71.2887 3.10429 68.8709 2.1 66.2022C1.11113 63.6578 0.435564 60.7487 0.24 56.4913C0.0444363 52.2244 0 50.8665 0 40C0 29.1333 0.0466545 27.7756 0.24 23.5111C0.433345 19.2511 1.11113 16.3422 2.1 13.7978C3.10476 11.1291 4.67905 8.71156 6.71335 6.71335C8.71124 4.67869 11.1289 3.10429 13.7978 2.1C16.3422 1.11113 19.2511 0.435564 23.5089 0.24ZM56.1644 7.44C51.9465 7.24887 50.68 7.20665 40 7.20665C29.32 7.20665 28.0533 7.24887 23.8356 7.44C19.9356 7.61778 17.8178 8.26887 16.4089 8.81778C14.5422 9.54222 13.2089 10.4089 11.8089 11.8089C10.4111 13.2089 9.54222 14.5422 8.81778 16.4089C8.26887 17.8178 7.61778 19.9356 7.44 23.8356C7.24887 28.0533 7.20665 29.32 7.20665 40C7.20665 50.68 7.24887 51.9465 7.44 56.1644C7.61778 60.0644 8.26887 62.1822 8.81778 63.5913C9.45858 65.3287 10.4807 66.9004 11.8089 68.1913C13.0994 69.5193 14.6713 70.5415 16.4089 71.1822C17.8178 71.7313 19.9356 72.3822 23.8356 72.56C28.0533 72.7513 29.3178 72.7935 40 72.7935C50.6822 72.7935 51.9465 72.7513 56.1644 72.56C60.0644 72.3822 62.1822 71.7313 63.5913 71.1822C65.4578 70.4578 66.7913 69.5913 68.1913 68.1913C69.5193 66.9007 70.5415 65.3287 71.1822 63.5913C71.7313 62.1822 72.3822 60.0644 72.56 56.1644C72.7513 51.9465 72.7935 50.68 72.7935 40C72.7935 29.32 72.7513 28.0533 72.56 23.8356C72.3822 19.9356 71.7313 17.8178 71.1822 16.4089C70.4578 14.5422 69.5913 13.2089 68.1913 11.8089C66.7913 10.4111 65.4578 9.54222 63.5913 8.81778C62.1822 8.26887 60.0644 7.61778 56.1644 7.44ZM34.8927 52.3305C36.512 53.0015 38.2473 53.3465 40 53.3465C43.54 53.3465 46.9345 51.9404 49.4375 49.4375C51.9407 46.9345 53.3469 43.5396 53.3469 40C53.3469 36.4604 51.9407 33.0655 49.4375 30.5625C46.9345 28.0595 43.54 26.6533 40 26.6533C38.2473 26.6533 36.512 26.9985 34.8927 27.6693C33.2731 28.34 31.8019 29.3231 30.5626 30.5625C29.3232 31.8018 28.3401 33.2731 27.6694 34.8924C26.9987 36.5116 26.6535 38.2473 26.6535 40C26.6535 41.7527 26.9987 43.4884 27.6694 45.1076C28.3401 46.7269 29.3232 48.1982 30.5626 49.4375C31.8019 50.6767 33.2731 51.66 34.8927 52.3305ZM25.462 25.4619C29.3177 21.6061 34.5473 19.44 40 19.44C45.4531 19.44 50.6825 21.6061 54.5382 25.4619C58.3938 29.3176 60.56 34.5473 60.56 40C60.56 45.4527 58.3938 50.6822 54.5382 54.5382C50.6825 58.3938 45.4531 60.56 40 60.56C34.5473 60.56 29.3177 58.3938 25.462 54.5382C21.6063 50.6822 19.4401 45.4527 19.4401 40C19.4401 34.5473 21.6063 29.3176 25.462 25.4619ZM65.1189 22.5032C66.0302 21.5917 66.5422 20.3556 66.5422 19.0667C66.5422 17.7777 66.0302 16.5415 65.1189 15.6301C64.2073 14.7187 62.9713 14.2067 61.6822 14.2067C60.3935 14.2067 59.1571 14.7187 58.2458 15.6301C57.3342 16.5415 56.8222 17.7777 56.8222 19.0667C56.8222 20.3556 57.3342 21.5917 58.2458 22.5032C59.1571 23.4146 60.3935 23.9267 61.6822 23.9267C62.9713 23.9267 64.2073 23.4146 65.1189 22.5032Z" fill="white"/>
</svg>
