<svg width="80" height="71" viewBox="0 0 80 71" fill="none" xmlns="http://www.w3.org/2000/svg">
<path d="M80 8.30997C77.058 9.71715 73.8977 10.6679 70.5752 11.0977C73.9646 8.90707 76.5648 5.43095 77.7909 1.29308C74.6199 3.32399 71.1072 4.79963 67.369 5.59069C64.3742 2.15261 60.111 0 55.3898 0C46.3278 0 38.9782 7.93345 38.9782 17.7229C38.9782 19.1072 39.1262 20.4536 39.401 21.7542C25.7553 21.0126 13.6669 13.9577 5.57033 3.24032C4.16101 5.86452 3.35065 8.90707 3.35065 12.1474C3.35065 18.2933 6.25033 23.7205 10.6509 26.8962C7.95913 26.8011 5.4294 26.0062 3.21677 24.6789V24.9071C3.21677 33.4909 8.87166 40.6523 16.3833 42.28C15.0022 42.6832 13.5541 42.8961 12.0602 42.8961C11.0033 42.8961 9.97093 42.7896 8.97031 42.5843C11.0596 49.6202 17.1197 54.7469 24.3037 54.8838C18.684 59.6378 11.6057 62.4712 3.9179 62.4712C2.59314 62.4712 1.286 62.3875 0 62.224C7.26504 67.2556 15.8901 70.184 25.1564 70.184C55.351 70.184 71.8577 43.189 71.8577 19.7766C71.8577 19.0159 71.84 18.2477 71.8083 17.4871C75.0145 14.9846 77.7979 11.8698 79.993 8.32138L80 8.30997Z" fill="white"/>
</svg>
